<svg xmlns="http://www.w3.org/2000/svg" xmlns:xlink="http://www.w3.org/1999/xlink" width="337" zoomAndPan="magnify" viewBox="14 148 347 72" height="72" preserveAspectRatio="xMidYMid meet" version="1.0"><defs><g/></defs><g fill="#000000" fill-opacity="1"><g transform="translate(17.97266, 193.977659)"><g><path d="M 20.6875 -0.0625 C 19.019531 -0.0625 18.1875 -0.726562 18.1875 -2.0625 C 18.1875 -2.144531 18.195312 -2.25 18.21875 -2.375 C 18.238281 -2.5 18.269531 -2.664062 18.3125 -2.875 C 18.769531 -4.707031 19.195312 -7.175781 19.59375 -10.28125 C 19.988281 -13.382812 20.332031 -17.144531 20.625 -21.5625 C 20.875 -25.019531 21.125 -27.894531 21.375 -30.1875 L 21.875 -35.1875 C 18.582031 -34.6875 15.125 -33.726562 11.5 -32.3125 C 10.582031 -31.976562 9.769531 -31.8125 9.0625 -31.8125 C 7.9375 -31.8125 6.90625 -32.125 5.96875 -32.75 C 5.03125 -33.375 4.289062 -34.289062 3.75 -35.5 C 4 -36.414062 4.46875 -37.101562 5.15625 -37.5625 C 5.84375 -38.019531 6.789062 -38.476562 8 -38.9375 C 13.875 -41.0625 20.5 -42.101562 27.875 -42.0625 C 29.664062 -42.0625 31.488281 -42.03125 33.34375 -41.96875 C 35.195312 -41.90625 37.082031 -41.789062 39 -41.625 C 40.914062 -41.457031 42.4375 -41.34375 43.5625 -41.28125 C 44.6875 -41.21875 45.414062 -41.164062 45.75 -41.125 L 50.125 -40.8125 L 51 -40.8125 C 51.375 -40.8125 51.8125 -40.414062 52.3125 -39.625 C 52.3125 -38.625 51.5625 -38.019531 50.0625 -37.8125 C 48.1875 -37.601562 46.582031 -37.425781 45.25 -37.28125 C 43.914062 -37.132812 42.851562 -37.019531 42.0625 -36.9375 C 41.269531 -36.894531 40.5625 -36.851562 39.9375 -36.8125 C 39.3125 -36.769531 38.789062 -36.726562 38.375 -36.6875 C 36.75 -36.601562 35.332031 -36.519531 34.125 -36.4375 C 32.914062 -36.351562 31.894531 -36.269531 31.0625 -36.1875 C 30.394531 -36.144531 29.875 -36.101562 29.5 -36.0625 C 29.125 -36.019531 28.832031 -35.789062 28.625 -35.375 C 28.414062 -34.957031 28.207031 -34.125 28 -32.875 C 27.832031 -30.332031 27.394531 -25.8125 26.6875 -19.3125 C 26.351562 -16.394531 26.082031 -13.9375 25.875 -11.9375 C 25.664062 -9.9375 25.519531 -8.394531 25.4375 -7.3125 C 25.394531 -6.726562 25.3125 -6.0625 25.1875 -5.3125 C 25.0625 -4.5625 24.875 -3.769531 24.625 -2.9375 C 24.414062 -2.226562 24.25 -1.675781 24.125 -1.28125 C 24 -0.882812 23.707031 -0.601562 23.25 -0.4375 C 22.789062 -0.269531 21.9375 -0.144531 20.6875 -0.0625 Z M 20.6875 -0.0625 "/></g></g></g><g fill="#000000" fill-opacity="1"><g transform="translate(67.469486, 193.977659)"><g><path d="M 23.1875 -1.1875 C 23.101562 -1.1875 22.925781 -1.320312 22.65625 -1.59375 C 22.382812 -1.863281 22.1875 -2.101562 22.0625 -2.3125 C 21.894531 -2.644531 21.738281 -3.039062 21.59375 -3.5 C 21.445312 -3.957031 21.269531 -4.457031 21.0625 -5 L 20.5625 -6.1875 L 20.4375 -6.5625 L 20.25 -6.375 L 19.25 -5.75 C 19 -5.539062 18.738281 -5.351562 18.46875 -5.1875 C 18.195312 -5.019531 17.914062 -4.875 17.625 -4.75 C 16.664062 -4.164062 15.519531 -3.875 14.1875 -3.875 C 12.519531 -3.875 10.9375 -4.34375 9.4375 -5.28125 C 7.9375 -6.21875 6.75 -7.5 5.875 -9.125 C 4.457031 -11.582031 3.75 -14.476562 3.75 -17.8125 C 3.75 -18.644531 3.8125 -19.582031 3.9375 -20.625 C 4.0625 -21.664062 4.226562 -22.832031 4.4375 -24.125 C 4.476562 -24.75 4.875 -25.289062 5.625 -25.75 C 6.289062 -26.207031 7.019531 -26.4375 7.8125 -26.4375 C 8.269531 -26.4375 8.707031 -26.375 9.125 -26.25 C 10.164062 -25.957031 10.90625 -25.601562 11.34375 -25.1875 C 11.78125 -24.769531 12 -24.207031 12 -23.5 C 12 -23.207031 11.9375 -22.769531 11.8125 -22.1875 C 11.394531 -20.3125 11.144531 -18.4375 11.0625 -16.5625 C 11.019531 -15.519531 11.09375 -14.507812 11.28125 -13.53125 C 11.46875 -12.550781 11.726562 -11.601562 12.0625 -10.6875 C 12.519531 -9.519531 13.039062 -8.9375 13.625 -8.9375 C 14.039062 -8.9375 14.582031 -9.3125 15.25 -10.0625 C 16.789062 -11.894531 17.9375 -13.726562 18.6875 -15.5625 C 19.4375 -17.394531 19.894531 -19.289062 20.0625 -21.25 C 20.1875 -22.582031 20.394531 -23.394531 20.6875 -23.6875 C 20.8125 -23.8125 21.082031 -23.914062 21.5 -24 C 21.707031 -24.039062 21.945312 -24.0625 22.21875 -24.0625 C 22.488281 -24.0625 22.789062 -24.0625 23.125 -24.0625 C 23.875 -24.019531 24.457031 -23.96875 24.875 -23.90625 C 25.289062 -23.84375 25.632812 -23.664062 25.90625 -23.375 C 26.175781 -23.082031 26.414062 -22.519531 26.625 -21.6875 L 26.5625 -18.75 C 26.5625 -18.457031 26.5625 -18.070312 26.5625 -17.59375 C 26.5625 -17.113281 26.539062 -16.582031 26.5 -16 L 26.1875 -7.625 C 26.101562 -6.125 25.664062 -4.289062 24.875 -2.125 C 24.789062 -2 24.5625 -1.820312 24.1875 -1.59375 C 23.8125 -1.363281 23.476562 -1.226562 23.1875 -1.1875 Z M 23.1875 -1.1875 "/></g></g></g><g fill="#000000" fill-opacity="1"><g transform="translate(96.905096, 193.977659)"><g><path d="M 18.1875 0.4375 C 17.3125 0.4375 16.375 0.375 15.375 0.25 C 14.375 0.125 13.40625 -0.238281 12.46875 -0.84375 C 11.53125 -1.445312 10.707031 -2.445312 10 -3.84375 C 9.289062 -5.238281 8.769531 -7.207031 8.4375 -9.75 C 8.476562 -10.164062 8.5 -10.6875 8.5 -11.3125 C 8.5 -11.9375 8.5 -12.664062 8.5 -13.5 C 8.5 -14.832031 8.46875 -16.1875 8.40625 -17.5625 C 8.34375 -18.9375 8.269531 -20.332031 8.1875 -21.75 C 8.101562 -22 7.957031 -22.1875 7.75 -22.3125 L 6.5 -22.625 C 5.5 -22.832031 4.875 -23.0625 4.625 -23.3125 C 4.332031 -23.644531 4.132812 -24 4.03125 -24.375 C 3.925781 -24.75 3.832031 -25.269531 3.75 -25.9375 C 4.125 -26.8125 4.8125 -27.25 5.8125 -27.25 C 6.0625 -27.207031 6.28125 -27.175781 6.46875 -27.15625 C 6.65625 -27.132812 6.789062 -27.125 6.875 -27.125 C 7.75 -27.125 8.269531 -27.375 8.4375 -27.875 C 8.644531 -28.414062 8.75 -29.519531 8.75 -31.1875 L 8.9375 -34.9375 C 8.976562 -36.5625 9.101562 -39.019531 9.3125 -42.3125 C 9.351562 -44.019531 10.125 -44.875 11.625 -44.875 C 11.875 -44.875 12.09375 -44.863281 12.28125 -44.84375 C 12.46875 -44.820312 12.644531 -44.789062 12.8125 -44.75 C 14.519531 -44.375 15.664062 -43.832031 16.25 -43.125 C 16.832031 -42.414062 17.070312 -41.632812 16.96875 -40.78125 C 16.863281 -39.925781 16.75 -39.039062 16.625 -38.125 C 15.375 -30.789062 14.976562 -27.019531 15.4375 -26.8125 C 15.4375 -26.476562 15.726562 -26.207031 16.3125 -26 C 16.851562 -25.832031 17.6875 -25.769531 18.8125 -25.8125 C 19.769531 -26.019531 20.613281 -26.195312 21.34375 -26.34375 C 22.070312 -26.488281 22.6875 -26.582031 23.1875 -26.625 C 23.269531 -26.664062 23.40625 -26.6875 23.59375 -26.6875 C 23.78125 -26.6875 23.976562 -26.6875 24.1875 -26.6875 C 24.6875 -26.6875 25.019531 -26.625 25.1875 -26.5 C 25.5625 -26.289062 25.75 -25.601562 25.75 -24.4375 C 25.75 -23.976562 25.695312 -23.5625 25.59375 -23.1875 C 25.488281 -22.8125 25.351562 -22.601562 25.1875 -22.5625 C 24.644531 -22.394531 24.039062 -22.238281 23.375 -22.09375 C 22.707031 -21.945312 21.976562 -21.832031 21.1875 -21.75 C 20.269531 -21.582031 19.476562 -21.425781 18.8125 -21.28125 C 18.144531 -21.132812 17.582031 -21 17.125 -20.875 C 16.664062 -20.75 16.207031 -20.4375 15.75 -19.9375 C 15.289062 -19.4375 15.039062 -18.976562 15 -18.5625 L 14.8125 -12.3125 C 14.769531 -10.6875 14.832031 -9.0625 15 -7.4375 C 15.125 -6.0625 15.394531 -5.070312 15.8125 -4.46875 C 16.226562 -3.863281 16.851562 -3.5625 17.6875 -3.5625 C 18.3125 -3.5625 19.269531 -3.789062 20.5625 -4.25 C 21.1875 -4.539062 21.769531 -4.6875 22.3125 -4.6875 C 23.144531 -4.6875 23.707031 -4.25 24 -3.375 C 24.125 -3.082031 24.1875 -2.789062 24.1875 -2.5 C 24.1875 -1.957031 23.988281 -1.519531 23.59375 -1.1875 C 23.195312 -0.851562 22.664062 -0.5625 22 -0.3125 C 20.75 0.144531 19.476562 0.394531 18.1875 0.4375 Z M 18.1875 0.4375 "/></g></g></g><g fill="#000000" fill-opacity="1"><g transform="translate(125.465759, 193.977659)"><g><path d="M 14.125 -1.25 C 12.25 -1.25 10.414062 -1.601562 8.625 -2.3125 C 6.832031 -2.976562 5 -6.332031 3.125 -12.375 L 4.0625 -18.1875 C 4.476562 -19.8125 5.269531 -20.945312 6.4375 -21.59375 C 7.601562 -22.238281 9.164062 -22.769531 11.125 -23.1875 C 12.375 -23.4375 13.601562 -23.5625 14.8125 -23.5625 C 18.601562 -23.5625 21.832031 -22.269531 24.5 -19.6875 C 25.875 -18.3125 26.5625 -16.625 26.5625 -14.625 C 26.5625 -12.625 25.851562 -10.519531 24.4375 -8.3125 C 22.726562 -5.726562 20.832031 -3.789062 18.75 -2.5 C 17.414062 -1.664062 15.875 -1.25 14.125 -1.25 Z M 12.75 -6.3125 C 13 -6.144531 13.46875 -6.101562 14.15625 -6.1875 C 14.84375 -6.269531 15.394531 -6.476562 15.8125 -6.8125 C 16.226562 -7.1875 16.726562 -7.800781 17.3125 -8.65625 C 17.894531 -9.507812 18.425781 -10.476562 18.90625 -11.5625 C 19.382812 -12.644531 19.625 -13.6875 19.625 -14.6875 C 19.625 -16.019531 19.25 -17.238281 18.5 -18.34375 C 17.75 -19.445312 16.707031 -20.1875 15.375 -20.5625 C 15.25 -20.601562 15 -20.625 14.625 -20.625 C 13.789062 -20.625 13.332031 -20.5 13.25 -20.25 C 12.914062 -19.414062 12.570312 -18.46875 12.21875 -17.40625 C 11.863281 -16.34375 11.476562 -15.1875 11.0625 -13.9375 L 10.875 -11.75 C 10.875 -11.457031 10.882812 -11 10.90625 -10.375 C 10.925781 -9.75 11 -9.207031 11.125 -8.75 C 11.539062 -7.457031 12.082031 -6.644531 12.75 -6.3125 Z M 12.75 -6.3125 "/></g></g></g><g fill="#000000" fill-opacity="1"><g transform="translate(154.838873, 193.977659)"><g><path d="M 8.875 -0.1875 C 7.707031 -0.1875 6.664062 -0.6875 5.75 -1.6875 C 4.832031 -2.6875 4.375 -3.789062 4.375 -5 C 4.414062 -7.207031 4.4375 -9.96875 4.4375 -13.28125 C 4.4375 -16.59375 4.4375 -20.457031 4.4375 -24.875 C 4.4375 -26.082031 4.707031 -26.925781 5.25 -27.40625 C 5.789062 -27.882812 6.769531 -28.125 8.1875 -28.125 C 9.226562 -28.125 10.113281 -27.832031 10.84375 -27.25 C 11.570312 -26.664062 11.957031 -25.9375 12 -25.0625 C 12.125 -24.6875 12.144531 -24.039062 12.0625 -23.125 L 11.3125 -15.75 C 11.519531 -15.957031 11.832031 -16.5625 12.25 -17.5625 C 12.707031 -18.5625 13.394531 -19.8125 14.3125 -21.3125 C 16.269531 -23.1875 18.476562 -24.3125 20.9375 -24.6875 C 23.394531 -25.0625 26.101562 -25.226562 29.0625 -25.1875 C 29.644531 -25.1875 30.007812 -25.03125 30.15625 -24.71875 C 30.300781 -24.40625 30.3125 -24.070312 30.1875 -23.71875 C 30.0625 -23.363281 29.832031 -23.125 29.5 -23 C 27 -22.164062 24.800781 -21.207031 22.90625 -20.125 C 21.007812 -19.039062 19.375 -17.625 18 -15.875 C 14.75 -11.75 12.875 -7.5 12.375 -3.125 C 12.25 -1.957031 11.894531 -1.175781 11.3125 -0.78125 C 10.726562 -0.382812 9.914062 -0.1875 8.875 -0.1875 Z M 8.875 -0.1875 "/></g></g></g><g fill="#000000" fill-opacity="1"><g transform="translate(185.461899, 193.977659)"><g><path d="M 17 3.625 C 12.914062 3.625 9.539062 2.394531 6.875 -0.0625 C 5.875 -0.9375 5.101562 -1.84375 4.5625 -2.78125 C 4.019531 -3.71875 3.75 -4.726562 3.75 -5.8125 C 3.75 -6.019531 3.75 -6.21875 3.75 -6.40625 C 3.75 -6.59375 3.769531 -6.726562 3.8125 -6.8125 C 4.144531 -8.976562 4.507812 -10.96875 4.90625 -12.78125 C 5.300781 -14.59375 5.707031 -16.226562 6.125 -17.6875 C 6.582031 -19.351562 7.226562 -21.570312 8.0625 -24.34375 C 8.894531 -27.113281 9.894531 -30.457031 11.0625 -34.375 C 11.3125 -35.332031 11.644531 -36.507812 12.0625 -37.90625 C 12.476562 -39.300781 12.957031 -40.914062 13.5 -42.75 C 13.789062 -43.707031 14.207031 -44.382812 14.75 -44.78125 C 15.289062 -45.175781 16.082031 -45.332031 17.125 -45.25 C 17.207031 -45.25 17.3125 -45.25 17.4375 -45.25 C 17.5625 -45.25 17.664062 -45.226562 17.75 -45.1875 C 17.832031 -45.144531 17.9375 -45.125 18.0625 -45.125 C 18.1875 -45.125 18.289062 -45.125 18.375 -45.125 C 21.039062 -44.957031 22.375 -43.664062 22.375 -41.25 C 22.375 -40.539062 22.289062 -39.914062 22.125 -39.375 C 21.957031 -38.707031 21.707031 -37.90625 21.375 -36.96875 C 21.039062 -36.03125 20.644531 -34.976562 20.1875 -33.8125 C 18.4375 -29.394531 16.882812 -25.039062 15.53125 -20.75 C 14.175781 -16.457031 13.019531 -12.25 12.0625 -8.125 C 11.8125 -7.082031 11.6875 -6 11.6875 -4.875 C 11.6875 -2.789062 12.625 -1.75 14.5 -1.75 C 14.957031 -1.75 15.25 -1.769531 15.375 -1.8125 C 15.957031 -1.894531 16.851562 -2.0625 18.0625 -2.3125 C 19.269531 -2.5625 20.789062 -2.875 22.625 -3.25 L 27.625 -4.3125 C 28.164062 -3.769531 28.632812 -3.28125 29.03125 -2.84375 C 29.425781 -2.40625 29.625 -2.039062 29.625 -1.75 C 29.625 -1.375 29.457031 -1.019531 29.125 -0.6875 C 28.957031 -0.519531 28.695312 -0.300781 28.34375 -0.03125 C 27.988281 0.238281 27.539062 0.582031 27 1 C 26.914062 1.039062 26.789062 1.1875 26.625 1.4375 C 26.414062 1.644531 26.25 1.769531 26.125 1.8125 L 24.375 2.3125 C 22.914062 2.726562 21.613281 3.050781 20.46875 3.28125 C 19.320312 3.507812 18.164062 3.625 17 3.625 Z M 17 3.625 "/></g></g></g><g fill="#000000" fill-opacity="1"><g transform="translate(217.897314, 193.977659)"><g><path d="M 8.375 -27.5 L 5.875 -27.9375 C 4.332031 -28.1875 3.582031 -29.332031 3.625 -31.375 C 3.289062 -31.707031 3.125 -32.101562 3.125 -32.5625 C 3.125 -32.851562 3.207031 -33.113281 3.375 -33.34375 C 3.539062 -33.570312 3.8125 -33.6875 4.1875 -33.6875 C 5.6875 -33.6875 7.457031 -33.164062 9.5 -32.125 C 9.75 -32.082031 9.96875 -31.738281 10.15625 -31.09375 C 10.34375 -30.445312 10.375 -29.914062 10.25 -29.5 C 10.207031 -29.207031 9.957031 -28.875 9.5 -28.5 C 8.957031 -28.082031 8.582031 -27.75 8.375 -27.5 Z M 9.875 0.0625 C 8.832031 0.0625 7.945312 -0.226562 7.21875 -0.8125 C 6.488281 -1.394531 6.039062 -2.144531 5.875 -3.0625 L 4.25 -16.3125 L 4 -17.5 C 4.207031 -18.375 4.3125 -19.039062 4.3125 -19.5 C 4.3125 -20.082031 4.488281 -20.539062 4.84375 -20.875 C 5.195312 -21.207031 5.875 -21.375 6.875 -21.375 C 8.039062 -21.375 9.070312 -21.007812 9.96875 -20.28125 C 10.863281 -19.550781 11.414062 -18.601562 11.625 -17.4375 C 11.75 -16.851562 11.832031 -16.207031 11.875 -15.5 C 11.914062 -14.789062 11.9375 -14.332031 11.9375 -14.125 L 12.8125 -3.4375 C 12.894531 -2.3125 12.726562 -1.445312 12.3125 -0.84375 C 11.894531 -0.238281 11.082031 0.0625 9.875 0.0625 Z M 9.875 0.0625 "/></g></g></g><g fill="#000000" fill-opacity="1"><g transform="translate(233.52129, 193.977659)"><g><path d="M 7.125 0.3125 C 4.539062 0.0195312 3.207031 -1.082031 3.125 -3 C 3.082031 -5.414062 3.269531 -8.269531 3.6875 -11.5625 C 3.851562 -12.769531 4 -13.851562 4.125 -14.8125 C 4.25 -15.769531 4.375 -16.601562 4.5 -17.3125 C 4.582031 -18.019531 4.707031 -18.832031 4.875 -19.75 L 5.25 -23.0625 C 5.332031 -23.726562 5.394531 -24.257812 5.4375 -24.65625 C 5.476562 -25.050781 5.707031 -25.40625 6.125 -25.71875 C 6.539062 -26.03125 7.375 -26.394531 8.625 -26.8125 C 11.164062 -26.8125 12.664062 -25.769531 13.125 -23.6875 L 13.125 -23.5625 C 13.125 -23.4375 13.113281 -23.300781 13.09375 -23.15625 C 13.070312 -23.007812 13.039062 -22.832031 13 -22.625 C 12.914062 -22.125 12.894531 -21.851562 12.9375 -21.8125 C 15.8125 -22.4375 18.25 -22.75 20.25 -22.75 C 23.414062 -22.75 25.769531 -21.25 27.3125 -18.25 C 28.601562 -15.707031 29.25 -12.894531 29.25 -9.8125 C 29.25 -9.394531 29.226562 -8.90625 29.1875 -8.34375 C 29.144531 -7.78125 29.082031 -7.125 29 -6.375 C 28.875 -5.375 28.476562 -4.570312 27.8125 -3.96875 C 27.144531 -3.363281 26.351562 -3.0625 25.4375 -3.0625 C 24.8125 -3.0625 24.300781 -3.125 23.90625 -3.25 C 23.507812 -3.375 23.21875 -3.71875 23.03125 -4.28125 C 22.84375 -4.84375 22.707031 -5.75 22.625 -7 L 22.5625 -8.3125 C 22.519531 -9.5625 22.457031 -10.726562 22.375 -11.8125 C 22.289062 -12.894531 22.1875 -13.894531 22.0625 -14.8125 C 21.851562 -16.1875 21 -16.875 19.5 -16.875 C 19.164062 -16.875 18.800781 -16.84375 18.40625 -16.78125 C 18.007812 -16.71875 17.582031 -16.644531 17.125 -16.5625 C 16.207031 -16.3125 15.5 -16.101562 15 -15.9375 C 14.5 -15.769531 14.0625 -15.582031 13.6875 -15.375 C 13.3125 -15.164062 12.8125 -14.832031 12.1875 -14.375 C 11.894531 -14.164062 11.6875 -13.75 11.5625 -13.125 C 11.4375 -12.5 11.375 -12.144531 11.375 -12.0625 C 11.082031 -10.726562 10.800781 -9.257812 10.53125 -7.65625 C 10.257812 -6.050781 9.957031 -4.332031 9.625 -2.5 C 9.582031 -2.414062 9.550781 -2.28125 9.53125 -2.09375 C 9.507812 -1.90625 9.457031 -1.644531 9.375 -1.3125 C 9.25 -0.644531 8.5 -0.101562 7.125 0.3125 Z M 7.125 0.3125 "/></g></g></g><g fill="#000000" fill-opacity="1"><g transform="translate(265.581728, 193.977659)"><g><path d="M 14.625 23.0625 C 12.875 23.101562 11.039062 22.8125 9.125 22.1875 C 8.207031 21.851562 7.332031 21.207031 6.5 20.25 C 5.625 19.332031 4.6875 17.1875 3.6875 13.8125 C 3.726562 13.601562 3.8125 13.382812 3.9375 13.15625 C 4.0625 12.925781 4.207031 12.789062 4.375 12.75 C 4.414062 12.707031 4.5 12.6875 4.625 12.6875 C 4.75 12.6875 4.925781 12.738281 5.15625 12.84375 C 5.382812 12.945312 5.539062 13.019531 5.625 13.0625 C 5.875 13.144531 6.019531 13.332031 6.0625 13.625 C 6.644531 14.914062 7.289062 15.9375 8 16.6875 C 8.707031 17.4375 9.644531 17.769531 10.8125 17.6875 C 15.144531 17.351562 18.082031 16.164062 19.625 14.125 C 20.164062 13.457031 20.613281 12.695312 20.96875 11.84375 C 21.320312 10.988281 21.5 10.1875 21.5 9.4375 C 21.5 8.351562 21.238281 7.5625 20.71875 7.0625 C 20.195312 6.5625 19.394531 6.207031 18.3125 6 C 17.144531 5.789062 16.03125 5.5 14.96875 5.125 C 13.90625 4.75 12.625 4.1875 11.125 3.4375 C 10.375 3.0625 9.851562 2.726562 9.5625 2.4375 C 9.269531 2.144531 9.125 1.789062 9.125 1.375 C 9.125 0.914062 9.375 -0.144531 9.875 -1.8125 C 9.957031 -1.976562 9.800781 -2.226562 9.40625 -2.5625 C 9.007812 -2.894531 8.53125 -3.238281 7.96875 -3.59375 C 7.40625 -3.945312 6.914062 -4.25 6.5 -4.5 C 4.25 -5.832031 3.125 -8 3.125 -11 C 3.125 -11.832031 3.1875 -12.625 3.3125 -13.375 C 4.0625 -17.914062 6.289062 -21.164062 10 -23.125 C 10.914062 -23.582031 11.832031 -23.8125 12.75 -23.8125 C 13.457031 -23.8125 14.1875 -23.707031 14.9375 -23.5 C 15.6875 -23.289062 16.125 -23.164062 16.25 -23.125 L 17.5625 -22.75 C 18.101562 -22.582031 18.707031 -22.5 19.375 -22.5 C 20.875 -22.5 22.25 -23.101562 23.5 -24.3125 C 24.414062 -25.101562 25.4375 -25.5 26.5625 -25.5 C 27.351562 -25.5 28.0625 -25.28125 28.6875 -24.84375 C 29.3125 -24.40625 29.769531 -23.769531 30.0625 -22.9375 C 30.101562 -22.769531 30.132812 -22.613281 30.15625 -22.46875 C 30.175781 -22.320312 30.1875 -22.207031 30.1875 -22.125 C 30.1875 -21.75 30.125 -21.457031 30 -21.25 C 29.957031 -21.164062 29.84375 -20.988281 29.65625 -20.71875 C 29.46875 -20.445312 29.226562 -20.082031 28.9375 -19.625 C 28.644531 -19.082031 28.375 -18.625 28.125 -18.25 C 27.875 -17.875 27.476562 -17.457031 26.9375 -17 C 26.769531 -16.914062 26.582031 -16.832031 26.375 -16.75 C 26.164062 -16.664062 25.957031 -16.601562 25.75 -16.5625 C 25.289062 -16.4375 24.851562 -16.164062 24.4375 -15.75 C 24.394531 -14.25 24.351562 -12.988281 24.3125 -11.96875 C 24.269531 -10.945312 24.101562 -9.9375 23.8125 -8.9375 C 23.519531 -7.9375 22.925781 -6.726562 22.03125 -5.3125 C 21.132812 -3.894531 19.769531 -2.019531 17.9375 0.3125 L 20.125 1.5 C 20.789062 1.875 21.375 2.1875 21.875 2.4375 C 22.375 2.6875 22.769531 2.894531 23.0625 3.0625 C 24.9375 3.9375 26.351562 5.050781 27.3125 6.40625 C 28.269531 7.757812 28.75 9.25 28.75 10.875 C 28.75 12.875 28.082031 14.851562 26.75 16.8125 C 25.332031 18.894531 23.5625 20.445312 21.4375 21.46875 C 19.3125 22.488281 17.039062 23.019531 14.625 23.0625 Z M 13.5625 -6.5 C 15.144531 -7.125 16.375 -8.207031 17.25 -9.75 C 18.125 -11.289062 18.5625 -12.976562 18.5625 -14.8125 C 18.5625 -15.9375 18.394531 -16.957031 18.0625 -17.875 C 17.726562 -18.789062 17.0625 -19.5 16.0625 -20 C 14.1875 -19.289062 12.601562 -18.1875 11.3125 -16.6875 C 10.019531 -15.226562 9.375 -13.707031 9.375 -12.125 C 9.375 -11.039062 9.71875 -10.007812 10.40625 -9.03125 C 11.09375 -8.050781 12.144531 -7.207031 13.5625 -6.5 Z M 13.5625 -6.5 "/></g></g></g><g fill="#000000" fill-opacity="1"><g transform="translate(296.704735, 193.977659)"><g><path d="M 23.1875 -1.1875 C 23.101562 -1.1875 22.925781 -1.320312 22.65625 -1.59375 C 22.382812 -1.863281 22.1875 -2.101562 22.0625 -2.3125 C 21.894531 -2.644531 21.738281 -3.039062 21.59375 -3.5 C 21.445312 -3.957031 21.269531 -4.457031 21.0625 -5 L 20.5625 -6.1875 L 20.4375 -6.5625 L 20.25 -6.375 L 19.25 -5.75 C 19 -5.539062 18.738281 -5.351562 18.46875 -5.1875 C 18.195312 -5.019531 17.914062 -4.875 17.625 -4.75 C 16.664062 -4.164062 15.519531 -3.875 14.1875 -3.875 C 12.519531 -3.875 10.9375 -4.34375 9.4375 -5.28125 C 7.9375 -6.21875 6.75 -7.5 5.875 -9.125 C 4.457031 -11.582031 3.75 -14.476562 3.75 -17.8125 C 3.75 -18.644531 3.8125 -19.582031 3.9375 -20.625 C 4.0625 -21.664062 4.226562 -22.832031 4.4375 -24.125 C 4.476562 -24.75 4.875 -25.289062 5.625 -25.75 C 6.289062 -26.207031 7.019531 -26.4375 7.8125 -26.4375 C 8.269531 -26.4375 8.707031 -26.375 9.125 -26.25 C 10.164062 -25.957031 10.90625 -25.601562 11.34375 -25.1875 C 11.78125 -24.769531 12 -24.207031 12 -23.5 C 12 -23.207031 11.9375 -22.769531 11.8125 -22.1875 C 11.394531 -20.3125 11.144531 -18.4375 11.0625 -16.5625 C 11.019531 -15.519531 11.09375 -14.507812 11.28125 -13.53125 C 11.46875 -12.550781 11.726562 -11.601562 12.0625 -10.6875 C 12.519531 -9.519531 13.039062 -8.9375 13.625 -8.9375 C 14.039062 -8.9375 14.582031 -9.3125 15.25 -10.0625 C 16.789062 -11.894531 17.9375 -13.726562 18.6875 -15.5625 C 19.4375 -17.394531 19.894531 -19.289062 20.0625 -21.25 C 20.1875 -22.582031 20.394531 -23.394531 20.6875 -23.6875 C 20.8125 -23.8125 21.082031 -23.914062 21.5 -24 C 21.707031 -24.039062 21.945312 -24.0625 22.21875 -24.0625 C 22.488281 -24.0625 22.789062 -24.0625 23.125 -24.0625 C 23.875 -24.019531 24.457031 -23.96875 24.875 -23.90625 C 25.289062 -23.84375 25.632812 -23.664062 25.90625 -23.375 C 26.175781 -23.082031 26.414062 -22.519531 26.625 -21.6875 L 26.5625 -18.75 C 26.5625 -18.457031 26.5625 -18.070312 26.5625 -17.59375 C 26.5625 -17.113281 26.539062 -16.582031 26.5 -16 L 26.1875 -7.625 C 26.101562 -6.125 25.664062 -4.289062 24.875 -2.125 C 24.789062 -2 24.5625 -1.820312 24.1875 -1.59375 C 23.8125 -1.363281 23.476562 -1.226562 23.1875 -1.1875 Z M 23.1875 -1.1875 "/></g></g></g><g fill="#000000" fill-opacity="1"><g transform="translate(326.140333, 193.977659)"><g><path d="M 14.4375 -0.125 C 13.269531 -0.125 12.050781 -0.300781 10.78125 -0.65625 C 9.507812 -1.007812 8.351562 -1.488281 7.3125 -2.09375 C 6.269531 -2.695312 5.476562 -3.351562 4.9375 -4.0625 C 4.101562 -5.3125 3.707031 -6.5625 3.75 -7.8125 C 3.832031 -9.851562 4.664062 -11.851562 6.25 -13.8125 C 7.332031 -15.101562 8.320312 -16.125 9.21875 -16.875 C 10.113281 -17.625 11.09375 -18.195312 12.15625 -18.59375 C 13.21875 -18.988281 14.5 -19.25 16 -19.375 C 16.332031 -19.375 16.78125 -19.414062 17.34375 -19.5 C 17.90625 -19.582031 18.414062 -19.695312 18.875 -19.84375 C 19.332031 -19.988281 19.5625 -20.144531 19.5625 -20.3125 C 19.5625 -20.894531 19.3125 -21.4375 18.8125 -21.9375 C 18.226562 -22.394531 17.164062 -22.625 15.625 -22.625 C 15.332031 -22.625 14.96875 -22.613281 14.53125 -22.59375 C 14.09375 -22.570312 13.582031 -22.539062 13 -22.5 C 12.414062 -22.457031 11.914062 -22.425781 11.5 -22.40625 C 11.082031 -22.382812 10.769531 -22.375 10.5625 -22.375 C 9.1875 -22.375 8.164062 -22.601562 7.5 -23.0625 C 7.332031 -23.101562 7.25 -23.5 7.25 -24.25 C 7.25 -25.539062 7.6875 -26.332031 8.5625 -26.625 C 9.476562 -26.957031 10.394531 -27.207031 11.3125 -27.375 C 12.226562 -27.539062 13.164062 -27.644531 14.125 -27.6875 C 16.539062 -27.6875 18.78125 -27.15625 20.84375 -26.09375 C 22.90625 -25.03125 24.414062 -23.707031 25.375 -22.125 C 26.332031 -20.582031 26.957031 -18.394531 27.25 -15.5625 C 27.414062 -14.019531 27.539062 -12.25 27.625 -10.25 C 27.707031 -8.25 27.75 -6.039062 27.75 -3.625 C 27.75 -2.289062 27.5625 -1.519531 27.1875 -1.3125 C 26.851562 -1.101562 26.539062 -1 26.25 -1 C 25.875 -1 25.4375 -1.132812 24.9375 -1.40625 C 24.4375 -1.675781 24 -2.019531 23.625 -2.4375 L 23.1875 -3.1875 C 23.019531 -3.644531 22.832031 -3.894531 22.625 -3.9375 C 22.25 -3.9375 21.832031 -3.757812 21.375 -3.40625 C 20.914062 -3.050781 20.519531 -2.6875 20.1875 -2.3125 C 19.9375 -2.0625 19.6875 -1.832031 19.4375 -1.625 C 19.1875 -1.414062 18.914062 -1.226562 18.625 -1.0625 C 18.164062 -0.769531 17.25 -0.5 15.875 -0.25 C 15.582031 -0.207031 15.320312 -0.175781 15.09375 -0.15625 C 14.863281 -0.132812 14.644531 -0.125 14.4375 -0.125 Z M 12.5 -4.5 C 12.789062 -4.5 13.0625 -4.539062 13.3125 -4.625 C 14.269531 -4.914062 15.238281 -5.238281 16.21875 -5.59375 C 17.195312 -5.945312 18.144531 -6.332031 19.0625 -6.75 C 19.476562 -6.957031 19.851562 -7.3125 20.1875 -7.8125 C 20.519531 -8.3125 20.726562 -8.625 20.8125 -8.75 C 20.894531 -8.875 20.96875 -9.238281 21.03125 -9.84375 C 21.09375 -10.445312 21.101562 -10.9375 21.0625 -11.3125 C 20.976562 -11.4375 20.914062 -11.769531 20.875 -12.3125 C 20.832031 -12.601562 20.757812 -12.863281 20.65625 -13.09375 C 20.550781 -13.320312 20.457031 -13.539062 20.375 -13.75 C 20.164062 -14.082031 19.832031 -14.394531 19.375 -14.6875 C 18.914062 -14.976562 18.5 -15.101562 18.125 -15.0625 C 17.332031 -15.019531 16.476562 -14.726562 15.5625 -14.1875 C 14.644531 -13.644531 13.789062 -12.914062 13 -12 C 12.207031 -11.039062 11.59375 -10.070312 11.15625 -9.09375 C 10.71875 -8.113281 10.5 -7.207031 10.5 -6.375 C 10.539062 -5.707031 10.851562 -5.1875 11.4375 -4.8125 C 11.769531 -4.601562 12.125 -4.5 12.5 -4.5 Z M 12.5 -4.5 "/></g></g></g></svg>